<svg width="690" height="690" viewBox="0 0 690 690" fill="none" xmlns="http://www.w3.org/2000/svg">
  <title>Gradual Logo</title>
  <circle cx="345" cy="345" r="344.5" fill="url(#paint0_radial_1_39)" stroke="black" />
  <path
    d="M383.607 34.5302L383.639 34.0313L383.607 34.5302C421.921 36.9981 457.362 48.7688 490.97 66.9889C516.613 80.8907 539.813 98.0013 560.329 118.657C580.856 139.323 606.975 170.423 625.443 211.35L625.446 211.358L625.45 211.365C640.485 241.953 649.402 274.419 653.361 308.154C656.093 331.446 655.976 354.834 653.868 378.282C651.074 409.366 643.338 439.135 630.995 467.632C624.07 483.619 615.387 498.807 605.756 513.441C591.512 535.084 574.984 554.761 556.177 572.538C536.105 591.511 513.477 606.873 488.989 619.58C488.101 620.041 487.212 620.501 486.313 620.967C484.372 621.973 482.381 623.005 480.239 624.121C452.057 637.868 422.744 646.848 392.136 651.293C373.895 653.942 355.503 655.467 337.033 655.645C335.373 655.661 334.125 655.469 333.29 654.896C332.5 654.353 331.979 653.392 331.968 651.581C331.949 648.591 331.904 645.603 331.859 642.619C331.592 624.829 331.326 607.155 336.637 589.8C341.735 573.141 350.89 558.882 361.425 545.288C370.938 533.013 382.028 522.204 393.147 511.367C394.085 510.453 395.024 509.538 395.961 508.622C411.314 493.629 425.376 477.553 433.982 457.465C448.297 424.05 446.154 392.042 423.906 362.685C410.828 345.429 393.297 334.031 372.487 327.578C367.401 326.001 362.28 324.568 357.166 323.138C344.67 319.642 332.217 316.159 320.411 310.6C300.513 301.231 283.125 289.018 274.362 268.167C264.367 244.383 267.649 221.184 280.445 199.201C289.129 184.283 301.325 172.217 314.048 160.674C329.655 146.514 344.649 131.697 355.653 113.516C369.451 90.7202 379.694 66.5342 379.019 39.0477C378.971 37.0731 379.261 35.9446 379.894 35.3107C380.521 34.6827 381.626 34.4026 383.607 34.5302Z"
    fill="url(#paint1_radial_1_39)" stroke="#3AA99F" />
  <defs>
    <radialGradient id="paint0_radial_1_39" cx="0" cy="0" r="1" gradientUnits="userSpaceOnUse"
      gradientTransform="translate(125.741 130.687) rotate(65.4052) scale(621.877)">
      <stop stop-color="#5ABDAC" />
      <stop offset="1" stop-color="#24837B" />
    </radialGradient>
    <radialGradient id="paint1_radial_1_39" cx="0" cy="0" r="1" gradientUnits="userSpaceOnUse"
      gradientTransform="translate(302.398 428.645) rotate(-99.7651) scale(170.482 191.795)">
      <stop stop-color="#ADADAD" />
      <stop offset="1" stop-color="#FFFBEF" />
    </radialGradient>
  </defs>
</svg>